<?xml version="1.0" encoding="UTF-8"?>
<!DOCTYPE svg PUBLIC "-//W3C//DTD SVG 1.1//EN" "http://www.w3.org/Graphics/SVG/1.1/DTD/svg11.dtd">
<!-- Creator: CorelDRAW -->
<svg xmlns="http://www.w3.org/2000/svg" xml:space="preserve" width="60mm" height="60mm" version="1.1" style="shape-rendering:geometricPrecision; text-rendering:geometricPrecision; image-rendering:optimizeQuality; fill-rule:evenodd; clip-rule:evenodd"
viewBox="0 0 6000 6000"
 xmlns:xlink="http://www.w3.org/1999/xlink"
 xmlns:xodm="http://www.corel.com/coreldraw/odm/2003">
 <defs>
  <style type="text/css">
   <![CDATA[
    .fil0 {fill:url(#id0)}
   ]]>
  </style>
  <linearGradient id="id0" gradientUnits="userSpaceOnUse" x1="3348.72" y1="5327.69" x2="2639.93" y2="683.66">
   <stop offset="0" style="stop-opacity:1; stop-color:#BF1506"/>
   <stop offset="1" style="stop-opacity:1; stop-color:#68231C"/>
  </linearGradient>
 </defs>
 <g id="Layer_x0020_1">
  <metadata id="CorelCorpID_0Corel-Layer"/>
  <path class="fil0" d="M3878.65 3001.83l426.93 -17.07 387.46 -22.9 23.94 6.44 72.09 -2.88 411.69 95.18 -413.29 87.99 -916.08 -52.67 26.88 -53.9 -19.62 -40.19zm-146.95 -167.31l1036.45 -271.38 373.73 17.43 -337.21 162.08 -1013.48 148.35c-9.99,-9.35 -19.97,-18.68 -29.64,-28.39 -9.43,-9.47 -19.44,-18.85 -29.85,-28.09zm-223.27 -167.5l1010.92 -624.04 359.19 -109.34 -283.07 246.67 -1044.08 516.3c-14.21,-10.02 -28.55,-19.91 -42.96,-29.59zm-126.78 -75.42l921.29 -885.33 319.91 -152.78 -200.95 292.07 -1007.72 763.26c-10.68,-5.9 -21.53,-11.64 -32.53,-17.22zm-200.04 -78.94l592.57 -1048.31 273.88 -290.15 -140.73 373.35 -674.93 981.21c-16.78,-5.74 -33.74,-11.11 -50.79,-16.1zm-101.33 -24.83l409.06 -1333.55 202.69 -280.57 -31.11 344.72 -565.17 1272.57c-5.15,-1.1 -10.31,-2.15 -15.47,-3.17zm-182.14 -19.9l10.49 -1436.83 98.4 -377.54 58.4 385.76 -139.71 1429.47c-9.23,-0.43 -18.42,-0.71 -27.58,-0.86zm-128.15 7l-239.35 -1165.56 35.79 -380.16 145.38 353.09 112.17 1187.54c-17.97,1.2 -35.98,2.89 -53.99,5.09zm-162.91 33.03l-649.92 -1184.59 -86.64 -356.74 227.77 287.91 535.41 1246.27c-8.88,2.28 -17.77,4.66 -26.62,7.15zm-119.65 40.41l-836.88 -962.33 -126.8 -315.72 272.13 204.2 717.36 1063.99c-8.64,3.19 -17.23,6.48 -25.81,9.86zm-214.36 107.43l-784.61 -495.32 -250.38 -271.17 340.44 142.55 758.43 586.94c-21.68,11.81 -43.01,24.15 -63.88,37zm-126.13 87.85l-1058.27 -383.14 -256.75 -211.52 329.8 43.52 1022.27 523.07c-12.58,9.19 -24.93,18.55 -37.05,28.07zm-255.69 236.04l-670.25 -34.96 -317.25 -112.29 333.66 -43.86 727.8 115.46 -73.96 75.65zm63.77 193.46l-816.36 127.09 -350.77 -58.24 333.21 -124.1 771.41 -28.97 6.67 13.23c11.15,22.11 31.54,46.48 55.84,70.99zm240.81 199.79l-726.37 352.27 -346.8 61.93 285.45 -206.46 714.32 -261.79c23.8,19.26 48.38,36.98 73.4,54.05zm134.86 88.06l-845.31 650.33 -360.56 136.67 256.81 -287.64 884.92 -540.74c13.07,8.5 26.16,17.05 39.24,25.75 7.84,5.22 16.18,10.44 24.9,15.63zm173.71 81.94l-779.74 1106.2 -277.21 227.29 153.48 -323.96 879.97 -1018.71c7.9,3.17 15.75,6.23 23.5,9.18zm131.7 40.73l-424.29 1006.04 -223.26 242.53 59.33 -324.26 543.32 -936.04c14.88,4.25 29.85,8.14 44.9,11.73zm172.42 26.38l-132.07 1229.67 -131.33 327.32 -23.76 -351.89 253.88 -1207.97c11.08,1.13 22.17,2.08 33.28,2.87zm124.09 1.69l124.21 1334.13 -73.69 411.92 -109.32 -403.93 7.47 -1341.09c17.12,0.06 34.23,-0.29 51.33,-1.03zm171.63 -21.11l480.51 1151.12 53.26 375.87 -200.81 -322.17 -373.9 -1197.25c13.7,-2.26 27.34,-4.79 40.94,-7.57zm123.02 -32.88l646.71 926.16 97.4 334.25 -253.59 -238.54 -537.36 -1007.47c15.72,-4.44 31.33,-9.25 46.84,-14.4zm184.81 -82.12l842.49 653.9 182.36 262.55 -285.38 -144.05 -774.94 -753.16c11.94,-6.18 23.77,-12.58 35.47,-19.24zm130.28 -82.78l1037.97 503.17 230.17 235.46 -320.37 -76.03 -981.2 -640.53c11.41,-7.43 22.5,-14.74 33.43,-22.07zm250.38 -200.51l734.1 117.39 314.73 147.16 -347.37 6.42 -775.14 -206.46c24.03,-19.96 49.93,-42.08 73.68,-64.51zm-1173.03 -101.76c-30.75,-164.89 85.9,-289.97 216.31,-313.71 239.01,-43.51 409.43,226.01 261.1,428.61 -31.92,43.6 -88.51,86.57 -165.22,100.19 -162.12,28.78 -288.28,-86.85 -312.19,-215.09zm499.11 245.69c15.46,-24.99 59.96,-45.07 96.84,-120.46 51.8,-105.89 61.06,-242.77 -0.04,-348.93 -53.82,-93.53 -84.21,-99.89 -96.84,-120.5 83.65,16.66 202.43,87.55 263.78,125.89 52.07,32.55 81.87,60.63 111.17,80.56l101.92 88.55c-45.22,44.63 -158.38,139.71 -215.44,171.65 -48.32,27.04 -62.76,40.34 -122.74,69.2 -35.94,17.27 -96.29,45.46 -138.65,54.04zm-609.56 -294.89c0,65.51 16.72,125.44 42.59,174.35 41.12,77.74 81.13,95.17 96.91,120.63 -111.76,-21.86 -330.89,-159.42 -424.85,-245.23 -24.88,-22.7 -41.47,-30.91 -51.37,-49.75 12.84,-24.01 54.03,-49.98 75.89,-69.63 9.04,-8.13 17,-15.82 26.16,-22.67 19.07,-14.25 35.46,-23.6 54.44,-39.32 56.01,-46.45 238.72,-148.09 319.88,-163.37 -9.04,14.25 -15.29,15.33 -27.9,27.29 -10.37,9.82 -16.31,17.96 -25.69,28.48 -53.1,59.54 -86.06,152.11 -86.06,239.22zm-489.52 0c15.89,31.5 144.7,135.8 169.96,157.76 58.34,50.73 120.4,86.93 190.89,133.83 51.01,33.94 154.17,79.94 223.27,101.8 266.47,84.32 559.78,42.56 783.07,-101.72 91.48,-59.11 104.02,-62.2 190.41,-134.36 29.87,-24.96 154.65,-125.72 170.39,-157.31 -8.61,-17.66 -20.87,-25.48 -38.99,-42.61 -15.34,-14.5 -26.56,-24.54 -42.86,-40.92 -54.73,-54.97 -209.85,-165.81 -278.69,-208.48 -139.6,-86.55 -329.61,-146.59 -503.43,-146.55 -247.53,0.04 -511.54,122.88 -694.23,280.57 -29.18,25.19 -62.34,48.28 -88,74.35l-81.79 83.64zm1018.89 -110.39c-8.55,111.17 -91.74,83.75 -113.22,63.8 -28.5,-26.44 -43.95,-109.48 51.3,-116.78 -29.92,-26.7 -93.47,-32.89 -139.58,-21.34 -153.01,38.33 -189.66,225.5 -80.59,326.82 71.96,66.83 183.44,57.73 254.47,-0.07 27.52,-22.4 54.47,-64.94 61.24,-115.12 10.04,-74.36 -12.96,-89.55 -33.62,-137.31z"/>
 </g>
</svg>
