<?xml version="1.0" encoding="UTF-8"?>
<!DOCTYPE svg PUBLIC "-//W3C//DTD SVG 1.1//EN" "http://www.w3.org/Graphics/SVG/1.1/DTD/svg11.dtd">
<!-- Creator: CorelDRAW -->
<svg xmlns="http://www.w3.org/2000/svg" xml:space="preserve" width="10.1312mm" height="10.2194mm" version="1.1" style="shape-rendering:geometricPrecision; text-rendering:geometricPrecision; image-rendering:optimizeQuality; fill-rule:evenodd; clip-rule:evenodd"
viewBox="0 0 2513.12 2521.94"
 xmlns:xlink="http://www.w3.org/1999/xlink"
 xmlns:xodm="http://www.corel.com/coreldraw/odm/2003">
 <defs>
  <style type="text/css">
   <![CDATA[
    .fil1 {fill:#FEFEFE}
    .fil0 {fill:url(#id0)}
    .fil2 {fill:url(#id1)}
   ]]>
  </style>
  <linearGradient id="id0" gradientUnits="userSpaceOnUse" x1="2.87" y1="1261.5" x2="2495.99" y2="1261.5">
   <stop offset="0" style="stop-opacity:1; stop-color:#802323"/>
   <stop offset="1" style="stop-opacity:1; stop-color:#360010"/>
  </linearGradient>
  <linearGradient id="id1" gradientUnits="userSpaceOnUse" xlink:href="#id0" x1="1177.15" y1="1261.5" x2="1430.97" y2="1261.5">
  </linearGradient>
 </defs>
 <g id="Layer_x0020_1">
  <metadata id="CorelCorpID_0Corel-Layer"/>
  <g id="_1705338852192">
   <path class="fil0" d="M1249.43 19.35c65.22,239.76 120.41,431.65 175.55,585.73 106.11,-146.62 223.78,-341.92 368.9,-592.71 -141.5,384.24 -231.48,654.57 -251.13,856.63 41.59,0.08 86.24,-2.48 134.47,-7.57 128.09,-105.5 271.9,-264.45 453.67,-476.96 -98.25,171.66 -179.55,317.39 -243.93,444.34 159.77,-31.08 350.22,-79.1 580.25,-140.5 -298,137.59 -520.75,246.83 -678.2,351.2 -10.72,26.09 -20.4,51.29 -29.12,75.76 160.65,101.82 383.12,129.23 736.1,150.65 -265.97,50.45 -457.85,93.67 -605,158.94 142.48,70.67 331.71,137.97 574.36,217.53 -312.89,-40.61 -548.25,-66.44 -733.08,-66.6 54.74,166.34 187.6,333.3 398.61,571.57 -238.88,-162.69 -412.19,-271.52 -570.43,-326.54 52.11,137.32 129.74,298.9 228.95,494.9 -127.18,-165.12 -235.01,-301.74 -331.19,-413.2 -66.68,153.44 -130.49,350.93 -208.78,609.95 28.74,-331.74 38.18,-562.62 -7.85,-729.15 -33.61,3.84 -68.06,10.02 -103.81,18.54 -100.15,115.38 -189.51,281.31 -302.44,512 36.1,-171.8 63.04,-313.63 76.54,-436.02 -148.23,61.37 -323.06,151.19 -543.88,269.52 290.24,-243.97 470.4,-413.16 540.63,-583.44 -4.22,-23.28 -9.5,-46.01 -15.93,-68.32 -185.64,-30.2 -400.5,29.16 -730.68,142.31 167.76,-109.49 299.51,-199.85 401.75,-286.61 -153.95,-29.77 -338.95,-56.38 -560.89,-85.38 294.94,-12.33 524.86,-26.65 702.98,-55.98 4.87,-5.91 9.61,-11.84 14.24,-17.8 -119.63,-141.58 -299.21,-296.96 -556.22,-508.29 257.05,134.17 449.09,225.41 607.64,260.97 -94.92,-152.58 -229.42,-333.89 -403.53,-560.35 199.57,183.56 361.55,327.14 500.3,430.87 24.1,-191.89 6.95,-441.67 -28.47,-804.81 134.67,428.75 231.78,674.45 407.99,785.65 38.88,-177.37 29,-425.79 1.63,-776.83z"/>
   <g>
    <ellipse class="fil1" cx="1304.06" cy="1261.5" rx="263.9" ry="164.43"/>
    <ellipse class="fil2" cx="1304.06" cy="1261.5" rx="126.91" ry="164.43"/>
   </g>
  </g>
 </g>
</svg>
