<?xml version="1.0" standalone="no"?>
<!DOCTYPE svg PUBLIC "-//W3C//DTD SVG 20010904//EN"
 "http://www.w3.org/TR/2001/REC-SVG-20010904/DTD/svg10.dtd">
<svg version="1.0" xmlns="http://www.w3.org/2000/svg"
 width="700.000000pt" height="700.000000pt" viewBox="0 0 700.000000 700.000000"
 preserveAspectRatio="xMidYMid meet">
<metadata>
Created by potrace 1.14, written by Peter Selinger 2001-2017
</metadata>
<g transform="translate(0.000000,700.000000) scale(0.100000,-0.100000)"
fill="#000000" stroke="none">
<path d="M3472 6103 c-18 -71 -35 -135 -37 -143 -43 -161 -43 -163 -45 -560
-1 -212 -3 -587 -5 -833 -4 -408 -3 -448 12 -445 18 3 19 9 28 114 3 40 7 86
10 102 2 17 6 63 10 104 3 40 8 84 10 98 2 14 7 59 10 100 3 41 8 86 10 100 2
14 6 61 10 105 3 44 8 91 10 105 2 14 7 59 10 100 4 41 8 89 9 105 4 31 14
145 22 225 2 25 6 61 8 80 3 19 8 71 11 115 4 43 8 83 11 87 11 17 5 180 -9
263 -9 50 -19 110 -22 135 -8 57 -27 170 -29 170 0 0 -16 -57 -34 -127z"/>
<path d="M4182 5807 c-83 -115 -116 -169 -131 -218 -11 -35 -75 -242 -141
-459 -157 -515 -181 -592 -226 -735 -21 -66 -39 -127 -40 -135 -2 -9 -14 -48
-28 -88 -16 -47 -20 -72 -12 -72 6 0 17 12 23 28 39 89 67 152 83 187 217 479
554 1250 560 1280 5 22 11 76 14 120 10 125 16 188 21 212 12 54 -21 22 -123
-120z"/>
<path d="M2989 5870 c0 -19 -2 -42 -3 -50 -2 -8 -6 -49 -10 -90 -4 -41 -9
-106 -13 -145 -11 -113 -9 -130 36 -345 24 -113 44 -212 46 -220 2 -8 13 -62
25 -120 12 -58 24 -114 26 -125 2 -11 33 -163 69 -338 36 -175 65 -319 65
-321 0 -2 30 -1 63 3 5 1 6 4 4 9 -3 4 -8 44 -11 88 -4 45 -9 93 -11 105 -2
13 -6 60 -9 105 -4 44 -8 96 -11 115 -2 19 -6 61 -9 94 -4 33 -8 83 -11 110
-9 96 -16 165 -21 222 -2 32 -6 76 -9 98 -2 22 -7 76 -11 120 -3 44 -7 87 -9
96 -2 8 -6 55 -10 105 -4 49 -9 97 -11 107 -5 27 -154 390 -165 402 -5 5 -9
-4 -10 -25z"/>
<path d="M2190 5852 c0 -7 21 -99 47 -204 l46 -192 110 -200 c60 -111 117
-214 127 -231 10 -16 37 -66 60 -110 24 -44 75 -138 115 -210 39 -71 91 -166
115 -210 24 -44 83 -152 132 -239 48 -88 88 -163 88 -167 0 -11 29 -19 35 -9
4 6 -245 603 -350 835 -48 107 -255 594 -255 600 0 3 -57 79 -127 168 -153
196 -143 184 -143 169z"/>
<path d="M4584 5483 c-71 -75 -139 -147 -152 -160 -19 -19 -260 -434 -449
-773 -14 -25 -79 -140 -144 -256 -65 -117 -119 -216 -119 -222 0 -7 53 -25 56
-19 0 1 110 162 244 357 568 827 535 776 579 895 23 61 46 119 51 130 5 11 17
45 28 75 11 30 25 67 31 83 6 15 9 27 7 27 -2 0 -61 -62 -132 -137z"/>
<path d="M1801 5458 c119 -302 117 -299 263 -467 74 -86 144 -167 156 -181 12
-14 45 -52 74 -85 116 -132 495 -568 574 -659 21 -24 38 -36 48 -32 11 4 -38
85 -202 328 -120 178 -301 447 -402 598 -102 151 -195 287 -206 302 -18 23
-309 248 -321 248 -3 0 5 -24 16 -52z"/>
<path d="M5310 5148 c-312 -149 -279 -126 -487 -328 -125 -120 -488 -469 -583
-560 -247 -236 -292 -283 -279 -291 8 -5 17 -9 20 -9 5 0 190 136 264 194 17
13 128 98 247 188 119 89 318 240 441 333 l225 170 115 168 c64 92 113 167
109 166 -4 0 -36 -14 -72 -31z"/>
<path d="M1502 4733 c30 -32 79 -85 109 -117 30 -32 70 -76 89 -97 21 -23 226
-159 494 -328 348 -220 463 -288 475 -281 9 5 25 15 35 23 22 16 47 -6 -339
292 -104 80 -197 151 -205 158 -8 7 -83 65 -167 130 -150 116 -155 119 -343
197 -105 44 -194 80 -197 80 -3 0 19 -26 49 -57z"/>
<path d="M5610 4720 c-30 -10 -118 -37 -195 -60 -95 -29 -162 -56 -207 -84
-498 -306 -1102 -678 -1107 -682 -8 -7 22 -34 39 -34 9 0 113 48 231 106 118
59 390 193 604 299 215 106 404 205 420 220 37 32 52 46 183 159 56 49 102 91
102 93 0 5 -13 2 -70 -17z"/>
<path d="M980 4487 c0 -2 28 -26 63 -54 66 -55 103 -85 127 -105 89 -77 105
-84 625 -272 286 -103 529 -191 540 -196 93 -39 168 -59 186 -49 36 19 65 2
-471 276 -129 66 -336 172 -460 236 -225 115 -242 121 -335 133 -27 3 -97 12
-154 20 -111 15 -121 16 -121 11z"/>
<path d="M5390 3965 c-162 -42 -300 -79 -785 -205 -132 -35 -242 -64 -244 -66
-2 -2 9 -17 25 -34 30 -33 37 -33 158 -15 11 2 43 6 69 10 27 4 56 8 65 10 10
1 40 6 67 9 56 8 107 15 145 21 42 7 243 36 275 40 25 3 155 23 265 40 14 2
45 6 70 10 25 4 59 9 75 11 29 4 110 41 324 146 l96 47 -45 1 c-25 1 -63 3
-85 5 -22 2 -101 5 -175 8 l-135 6 -165 -44z"/>
<path d="M3310 3962 c-272 -27 -528 -137 -750 -320 -83 -69 -200 -185 -200
-198 0 -7 4 -14 9 -16 5 -1 33 -25 63 -53 128 -117 185 -161 316 -243 150 -94
303 -153 462 -179 91 -15 259 -9 380 12 112 20 254 80 394 167 133 83 386 292
386 319 0 10 -108 114 -165 159 -77 61 -91 71 -165 123 -167 115 -313 178
-493 212 -80 15 -185 23 -237 17z m493 -232 c43 -22 109 -60 145 -83 64 -42
242 -184 242 -194 0 -19 -199 -174 -295 -230 -90 -52 -226 -113 -253 -113 -3
0 14 19 37 43 83 82 122 190 118 327 -3 75 -7 96 -35 153 -18 36 -53 88 -78
116 l-46 51 44 -16 c24 -8 78 -33 121 -54z m-754 23 c-18 -21 -37 -39 -41 -41
-5 -2 -8 -8 -8 -14 0 -5 -8 -22 -18 -36 -10 -15 -26 -54 -35 -88 -43 -155 0
-326 106 -427 17 -15 27 -30 25 -33 -7 -7 -97 30 -176 71 -136 72 -362 238
-362 266 0 37 259 221 410 290 132 62 147 63 99 12z m447 -17 c231 -106 239
-437 13 -561 -75 -41 -185 -45 -265 -10 -106 47 -179 145 -191 258 -19 189
144 354 337 340 30 -2 78 -14 106 -27z"/>
<path d="M3331 3668 c-137 -21 -214 -141 -178 -280 12 -50 77 -122 127 -142
49 -19 148 -14 188 11 107 66 147 186 96 284 -20 38 -23 41 -24 18 -1 -69 -94
-98 -136 -42 -33 44 0 122 52 123 18 1 18 1 1 11 -35 20 -72 25 -126 17z"/>
<path d="M1428 3745 c-1 -1 -28 -5 -58 -9 -30 -3 -71 -8 -90 -11 -19 -2 -55
-7 -80 -10 -25 -3 -67 -9 -95 -13 l-50 -7 95 -33 c52 -18 104 -37 115 -41 42
-18 141 -50 170 -55 17 -3 89 -8 160 -11 72 -4 157 -8 190 -10 33 -2 123 -6
200 -10 77 -4 159 -8 181 -10 38 -3 45 1 83 40 47 50 49 48 -64 65 -38 6 -82
13 -96 15 -14 3 -41 7 -60 9 -19 3 -47 7 -64 10 -43 7 -284 46 -325 52 -19 3
-46 7 -60 10 -14 2 -45 7 -70 10 -25 3 -52 8 -62 9 -9 2 -18 2 -20 0z"/>
<path d="M5467 3544 c-1 -1 -65 -5 -142 -8 -77 -4 -169 -9 -205 -11 -74 -5
-208 -11 -430 -21 -85 -3 -156 -7 -158 -9 -2 -2 1 -12 7 -22 7 -14 6 -27 -5
-48 -17 -34 -14 -38 34 -40 20 -2 96 -5 167 -9 72 -4 153 -9 180 -11 28 -2
109 -7 180 -10 72 -4 148 -8 170 -10 22 -2 108 -6 190 -10 l150 -6 224 49
c123 27 220 52 214 55 -5 3 -20 8 -34 11 -62 12 -344 78 -351 82 -8 5 -187 22
-191 18z"/>
<path d="M2107 3394 c-2 -2 -248 -11 -497 -20 -312 -10 -286 -6 -487 -80 -100
-38 -183 -71 -183 -75 0 -4 21 -10 48 -13 26 -4 54 -9 62 -11 8 -1 47 -8 85
-14 39 -6 81 -13 95 -16 55 -12 129 -12 200 0 78 13 141 23 200 31 19 2 46 6
60 9 14 3 41 7 60 10 19 3 62 9 95 15 129 21 316 50 367 56 29 4 55 8 57 10 2
2 -11 25 -30 52 -32 48 -35 49 -82 48 -27 -1 -49 -2 -50 -2z"/>
<path d="M4383 3239 c-27 -24 -39 -41 -31 -43 7 -2 83 -22 168 -45 85 -23 250
-66 365 -97 116 -30 217 -57 225 -59 8 -1 40 -10 72 -19 46 -14 92 -16 247
-14 104 2 193 6 196 9 3 3 -25 20 -62 37 -38 17 -117 53 -176 81 -78 37 -129
54 -182 62 -40 5 -84 12 -97 14 -13 3 -95 17 -183 31 -88 13 -171 27 -185 29
-14 2 -43 7 -65 11 -22 3 -87 14 -144 23 l-103 18 -45 -38z"/>
<path d="M2395 3098 c-44 -16 -116 -42 -160 -58 -44 -16 -196 -72 -338 -124
l-258 -95 -154 -113 c-85 -62 -155 -115 -155 -119 0 -4 14 -4 30 1 17 5 33 9
35 9 3 0 20 3 38 6 17 3 44 7 60 9 15 3 53 10 85 15 31 6 73 13 92 16 19 3 51
13 70 22 47 22 308 148 563 272 115 55 212 101 215 101 4 0 15 7 24 14 16 12
14 16 -25 43 l-42 31 -80 -30z"/>
<path d="M4111 3026 c-9 -11 22 -35 171 -133 933 -610 953 -622 1013 -638 33
-8 71 -17 85 -20 14 -2 70 -16 125 -29 55 -14 100 -24 102 -23 1 2 -60 64
-135 140 -107 108 -150 144 -197 166 -33 16 -136 66 -230 111 -93 45 -233 113
-310 150 -77 37 -238 115 -357 173 -251 122 -251 122 -267 103z"/>
<path d="M2564 2961 c-44 -26 -214 -130 -379 -230 -295 -180 -434 -266 -527
-323 -26 -16 -77 -64 -115 -106 -79 -89 -113 -128 -176 -197 -25 -27 -45 -51
-43 -52 2 -2 92 30 201 71 219 83 204 74 490 296 111 85 303 234 429 330 125
96 239 184 252 195 l23 20 -38 22 -39 22 -78 -48z"/>
<path d="M3952 2931 c-11 -7 -11 -11 1 -22 8 -8 135 -131 282 -274 148 -143
343 -333 434 -423 l166 -163 168 -85 c93 -47 165 -79 161 -72 -4 7 -52 76
-105 153 -92 132 -103 145 -214 230 -64 50 -126 98 -138 107 -12 10 -96 75
-187 145 -91 70 -170 132 -176 138 -7 5 -53 42 -104 80 -50 39 -128 98 -172
133 -81 63 -93 68 -116 53z"/>
<path d="M2873 2856 c-4 -7 -31 -40 -59 -72 -28 -33 -71 -81 -94 -109 -24 -27
-66 -77 -95 -110 -29 -33 -160 -184 -290 -335 -130 -151 -249 -289 -264 -305
-191 -219 -200 -231 -277 -392 -41 -87 -79 -166 -84 -175 -26 -45 1 -29 146
90 l156 127 214 305 c119 168 222 314 230 325 40 56 436 618 450 640 16 24 15
25 -4 25 -12 0 -25 -6 -29 -14z"/>
<path d="M3733 2840 l-23 -9 24 -43 c12 -24 47 -88 76 -143 29 -55 65 -122 80
-150 15 -27 51 -95 80 -150 29 -55 65 -122 80 -150 75 -140 118 -219 242 -455
28 -52 62 -96 111 -144 127 -120 192 -181 211 -196 18 -14 19 -13 14 5 -3 11
-29 97 -57 192 l-51 171 -197 284 c-109 155 -211 302 -228 326 -16 24 -62 89
-102 145 -39 56 -101 145 -137 197 -74 107 -91 130 -97 129 -2 0 -14 -4 -26
-9z"/>
<path d="M2959 2722 c-156 -266 -484 -831 -506 -872 -14 -25 -34 -59 -44 -76
-17 -28 -27 -67 -45 -169 -2 -16 -12 -66 -20 -110 -8 -44 -17 -91 -20 -105 -5
-27 13 -10 184 176 l73 80 170 404 c93 223 176 419 184 435 7 17 25 59 40 95
15 36 35 83 44 105 10 22 26 59 36 83 19 44 17 54 -14 59 -15 2 -34 -22 -82
-105z"/>
<path d="M3580 2797 c0 -15 13 -59 135 -447 47 -151 106 -340 131 -420 25 -80
58 -185 74 -235 15 -49 43 -137 60 -195 18 -58 37 -110 42 -117 5 -6 56 -87
114 -180 l105 -168 -6 56 c-3 31 -8 67 -10 80 -3 13 -7 41 -10 64 -12 90 -27
191 -30 214 -3 18 -415 1017 -481 1166 -7 17 -28 66 -47 110 -26 61 -39 81
-55 83 -14 2 -22 -2 -22 -11z"/>
<path d="M3235 2778 c-2 -7 -6 -24 -9 -38 -2 -14 -9 -45 -15 -70 -5 -25 -12
-58 -15 -75 -3 -16 -35 -169 -71 -340 -36 -170 -70 -330 -75 -355 -5 -25 -31
-151 -59 -281 -33 -157 -48 -253 -46 -285 2 -27 7 -98 10 -159 4 -60 9 -121
10 -135 2 -14 4 -34 4 -45 2 -28 150 341 156 390 11 85 15 112 20 170 12 128
15 156 19 183 3 15 7 59 11 97 5 61 12 123 30 275 2 19 6 67 10 105 3 39 8 81
10 95 2 14 7 52 10 85 7 80 17 166 20 186 2 8 6 55 10 105 4 49 9 92 12 97 2
4 -5 7 -17 7 -11 0 -23 -6 -25 -12z"/>
<path d="M3364 2776 c-2 -6 -6 -357 -8 -781 l-4 -770 45 -165 c24 -91 51 -192
59 -225 16 -64 29 -87 31 -56 1 10 7 45 13 77 6 33 13 73 15 90 2 18 11 65 19
105 19 92 31 178 29 204 -9 120 -15 188 -18 203 -1 9 -6 55 -10 102 -4 47 -8
101 -10 120 -2 19 -6 64 -9 100 -4 36 -8 85 -11 110 -3 25 -7 74 -10 110 -11
122 -19 206 -30 315 -1 17 -6 71 -10 120 -4 50 -9 101 -11 115 -2 14 -6 56
-10 95 -3 38 -8 81 -9 95 -2 14 -4 30 -4 36 -1 5 -13 10 -27 10 -14 0 -28 -5
-30 -10z"/>
</g>
</svg>
