<?xml version="1.0" standalone="no"?>
<!DOCTYPE svg PUBLIC "-//W3C//DTD SVG 20010904//EN"
 "http://www.w3.org/TR/2001/REC-SVG-20010904/DTD/svg10.dtd">
<svg version="1.0" xmlns="http://www.w3.org/2000/svg"
 width="700.000000pt" height="700.000000pt" viewBox="0 0 700.000000 700.000000"
 preserveAspectRatio="xMidYMid meet">
<metadata>
Created by potrace 1.14, written by Peter Selinger 2001-2017
</metadata>
<g transform="translate(0.000000,700.000000) scale(0.100000,-0.100000)"
fill="#000000" stroke="none">
<path d="M3405 6692 c-27 -10 -142 -79 -255 -153 -113 -75 -329 -216 -480
-314 -336 -218 -525 -341 -695 -452 -316 -206 -947 -616 -1020 -663 -44 -28
-127 -82 -185 -120 -58 -38 -169 -110 -247 -160 -97 -62 -152 -105 -173 -133
-63 -86 -61 -37 -58 -1218 3 -1072 3 -1074 24 -1119 28 -59 65 -98 142 -148
35 -23 65 -42 67 -42 1 0 63 -40 136 -88 141 -93 187 -123 574 -374 132 -86
284 -184 337 -219 54 -35 146 -95 205 -134 98 -63 223 -144 493 -320 52 -34
223 -145 380 -247 268 -174 439 -285 642 -419 97 -63 162 -84 238 -76 63 7
111 30 240 116 58 39 141 93 185 121 44 28 154 100 245 160 147 96 270 176
489 318 81 52 121 78 141 92 8 5 186 121 395 256 209 136 436 283 505 328 69
45 298 194 509 332 287 186 392 259 413 288 60 84 58 40 57 1206 0 1036 -1
1066 -20 1117 -11 28 -34 67 -52 86 -18 19 -304 211 -637 427 -333 216 -643
418 -690 448 -47 31 -137 89 -200 130 -135 88 -877 570 -1000 650 -47 31 -137
89 -200 130 -63 41 -152 99 -197 129 -125 83 -207 101 -308 65z m-195 -1415
l0 -603 -142 -100 c-78 -54 -169 -118 -202 -142 -34 -23 -104 -72 -156 -108
-52 -36 -106 -74 -120 -84 -14 -10 -83 -59 -155 -109 -71 -50 -134 -94 -140
-99 -5 -4 -65 -45 -132 -91 l-122 -84 -53 37 c-29 20 -100 70 -158 111 -58 41
-148 103 -200 140 -52 36 -142 99 -200 140 -58 40 -136 95 -175 121 -38 27
-71 52 -73 56 -2 4 -8 8 -14 8 -5 0 -16 6 -24 14 -7 8 -19 17 -26 20 -16 7
-46 -14 494 338 909 589 1393 905 1533 997 33 22 61 40 63 40 1 1 2 -270 2
-602z m814 451 c65 -43 123 -78 127 -78 5 0 9 -3 9 -8 0 -4 9 -12 20 -17 12
-6 356 -228 765 -495 410 -267 789 -513 842 -548 54 -35 99 -66 100 -70 1 -4
-63 -52 -143 -107 -79 -55 -287 -200 -462 -323 -174 -122 -323 -220 -329 -217
-7 2 -272 185 -588 407 l-575 402 0 603 0 603 58 -37 c31 -20 110 -72 176
-115z m-93 -1865 c233 -163 446 -311 472 -329 l48 -32 -23 -17 c-25 -18 -200
-141 -313 -220 -38 -27 -191 -134 -340 -237 -148 -104 -275 -186 -282 -184 -7
3 -130 88 -273 188 -143 101 -268 188 -278 193 -9 6 -19 13 -22 16 -3 3 -34
26 -70 50 -238 165 -290 203 -290 209 0 6 342 249 634 450 28 20 83 58 121 85
160 112 179 125 185 125 4 0 198 -134 431 -297z m-2886 -22 c233 -163 324
-226 407 -283 43 -29 77 -55 77 -58 0 -3 -65 -50 -145 -105 -80 -55 -161 -111
-179 -125 -18 -14 -70 -50 -115 -80 -44 -30 -106 -74 -138 -97 -31 -24 -62
-43 -67 -43 -7 0 -10 156 -10 454 0 300 3 452 10 448 6 -3 78 -53 160 -111z
m5080 -336 c0 -253 -4 -455 -9 -455 -4 0 -34 18 -65 41 -31 22 -99 70 -151
107 -52 36 -171 118 -263 183 l-168 117 33 25 c18 14 92 65 163 115 72 50 144
100 160 112 43 31 299 210 299 210 1 0 1 -205 1 -455z m-3973 -438 c57 -39
122 -86 146 -102 24 -17 89 -62 145 -102 56 -39 156 -109 222 -154 66 -46 125
-87 130 -92 10 -8 110 -79 313 -219 l102 -71 0 -599 c0 -329 -4 -598 -8 -598
-4 0 -83 50 -176 110 -92 61 -168 110 -170 110 -1 0 -80 51 -174 113 -94 61
-262 171 -372 242 -110 72 -242 157 -293 190 -161 105 -547 356 -697 453 -224
145 -211 135 -197 150 19 18 911 641 919 642 4 0 54 -33 110 -73z m3130 -150
c175 -122 383 -267 462 -322 80 -55 145 -102 145 -105 1 -7 -3 -9 -604 -398
-187 -121 -353 -230 -370 -242 -16 -11 -104 -68 -195 -127 -91 -58 -209 -134
-262 -169 -54 -35 -144 -94 -200 -131 -57 -36 -148 -96 -203 -131 -55 -36
-137 -90 -182 -119 l-83 -53 0 603 0 604 78 53 c42 30 228 159 412 289 184
129 371 260 415 290 44 30 120 84 169 118 49 35 91 63 95 63 3 0 149 -100 323
-223z"/>
</g>
</svg>
