<?xml version="1.0" standalone="no"?>
<!DOCTYPE svg PUBLIC "-//W3C//DTD SVG 20010904//EN"
 "http://www.w3.org/TR/2001/REC-SVG-20010904/DTD/svg10.dtd">
<svg version="1.0" xmlns="http://www.w3.org/2000/svg"
 width="1356.000000pt" height="1356.000000pt" viewBox="0 0 1356.000000 1356.000000"
 preserveAspectRatio="xMidYMid meet">
<metadata>
Created by potrace 1.14, written by Peter Selinger 2001-2017
</metadata>
<g transform="translate(0.000000,1356.000000) scale(0.100000,-0.100000)"
fill="#000000" stroke="none">
<path d="M4570 13505 c0 -11 13 -159 30 -330 180 -1899 220 -3020 134 -3825
-8 -79 -17 -146 -19 -148 -9 -9 -592 455 -920 733 -401 340 -992 864 -1512
1342 -128 117 -235 213 -238 213 -3 0 49 -71 115 -157 650 -848 1218 -1621
1600 -2177 160 -233 430 -649 425 -654 -11 -12 -341 80 -566 157 -560 191
-1046 406 -2028 898 -366 183 -661 329 -655 325 5 -5 198 -165 428 -357 956
-794 1497 -1275 1996 -1775 235 -235 550 -577 550 -597 0 -4 -17 -28 -38 -52
l-37 -43 -155 -24 c-764 -116 -1998 -213 -3438 -270 -95 -4 -171 -8 -169 -10
1 -2 174 -26 382 -54 773 -103 1548 -218 2045 -304 412 -71 560 -99 560 -106
0 -10 -260 -219 -480 -387 -319 -242 -742 -538 -1290 -901 -195 -129 -359
-238 -364 -243 -5 -5 118 34 275 87 1319 442 2042 625 2724 690 302 29 899 5
925 -36 10 -17 35 -112 64 -251 l23 -105 -42 -95 c-327 -727 -1048 -1509
-2633 -2853 -122 -103 -222 -190 -222 -193 0 -3 28 11 62 30 35 19 216 115
403 214 1063 563 1775 911 2414 1180 l33 14 -6 -68 c-39 -380 -182 -1212 -343
-1990 -33 -155 -58 -281 -57 -280 1 1 103 202 226 447 557 1103 913 1698 1305
2181 l102 125 183 37 c195 39 365 63 374 54 22 -22 95 -394 124 -631 38 -320
45 -467 45 -1001 0 -622 -21 -1054 -91 -1912 -14 -172 -24 -323 -22 -334 2
-12 22 43 46 122 172 571 451 1448 589 1844 154 445 359 986 458 1210 l27 60
41 -45 c207 -231 890 -1077 1396 -1730 173 -223 321 -412 328 -420 8 -8 -67
149 -167 350 -326 653 -565 1156 -762 1605 -116 266 -282 674 -276 680 2 2 71
-22 154 -54 638 -247 1335 -643 2495 -1417 225 -150 409 -271 409 -268 0 3
-78 94 -173 202 -1131 1287 -1665 2056 -1928 2776 -16 44 -29 84 -29 88 0 14
642 -9 1050 -37 601 -42 1349 -121 2375 -250 280 -35 510 -63 512 -62 1 2
-132 47 -295 101 -1224 406 -2097 738 -2666 1014 l-120 58 165 67 c607 247
1340 442 2574 687 537 106 522 103 505 106 -8 2 -157 13 -330 24 -1628 107
-2511 262 -3190 562 -175 77 -430 217 -430 236 0 10 113 308 138 364 17 39 36
54 188 150 692 437 1553 883 3109 1610 198 92 356 168 351 168 -5 0 -189 -48
-410 -106 -546 -144 -1357 -347 -1726 -433 -270 -62 -427 -97 -847 -185 -62
-13 -113 -21 -113 -18 0 10 218 428 363 697 173 322 527 958 761 1369 97 170
176 311 176 313 0 2 -102 -115 -227 -259 -715 -829 -1143 -1294 -1633 -1772
-201 -197 -522 -488 -575 -522 -23 -14 -378 -42 -598 -47 l-138 -3 6 56 c103
908 450 2107 1229 4240 63 173 114 315 113 316 -1 1 -47 -75 -101 -169 -492
-849 -988 -1668 -1316 -2177 -269 -416 -559 -835 -570 -823 -12 14 -176 501
-279 831 -168 536 -348 1158 -610 2107 -58 211 -59 207 -31 -157 105 -1391
127 -2458 65 -3140 -21 -228 -78 -611 -100 -675 -5 -16 -147 82 -265 183 -468
400 -839 1000 -1240 2004 -153 383 -333 896 -557 1585 -78 242 -142 431 -143
420z m2358 -5859 c-296 -88 -509 -407 -534 -801 -28 -442 210 -845 556 -940
l55 -15 -85 6 c-611 41 -1107 322 -1242 704 -18 53 -23 86 -23 180 0 94 5 127
23 180 96 272 379 497 777 621 137 42 392 86 510 87 35 1 31 -2 -37 -22z m507
-6 c545 -86 965 -376 1056 -730 15 -61 15 -194 -1 -261 -78 -330 -455 -609
-963 -713 -112 -23 -298 -47 -351 -45 -11 0 7 8 41 18 273 78 483 353 533 700
18 117 8 343 -18 443 -83 313 -283 541 -530 603 l-57 15 85 -6 c47 -3 139 -14
205 -24z"/>
</g>
</svg>
